# exported by https://3dviewer.net
mtllib model.mtl
g Dot
v -0.009045 0.045595 0.153154
v 0.009841 0.045595 0.153146
v 0.000398 0.046548 0.15315
v -0.017842 0.042864 0.153158
v 0.018637 0.042864 0.153142
v -0.025802 0.038542 0.153161
v 0.026598 0.038542 0.153139
v -0.032739 0.032818 0.153164
v 0.033535 0.032818 0.153136
v -0.038463 0.025881 0.153166
v 0.039258 0.025881 0.153134
v -0.042785 0.017921 0.153168
v 0.04358 0.017921 0.153132
v -0.045516 0.009124 0.153169
v 0.046312 0.009124 0.153131
v -0.046469 -0.000319 0.15317
v 0.047264 -0.000319 0.15313
v -0.045516 -0.009762 0.153169
v 0.046312 -0.009762 0.153131
v -0.042785 -0.018558 0.153168
v 0.04358 -0.018558 0.153132
v -0.038463 -0.026519 0.153166
v 0.039258 -0.026519 0.153134
v -0.032739 -0.033456 0.153164
v 0.033535 -0.033456 0.153136
v -0.025802 -0.039179 0.153161
v 0.026598 -0.039179 0.153139
v -0.017842 -0.043501 0.153158
v 0.018637 -0.043501 0.153142
v -0.009045 -0.046233 0.153154
v 0.009841 -0.046233 0.153146
v 0.000398 -0.047185 0.15315
v 0.000397 -0.047499 0.1524
v -0.009108 -0.04654 0.152404
v -0.009121 -0.04654 0.12241
v 0.000385 -0.047499 0.122406
v -0.017964 -0.04379 0.152408
v -0.017977 -0.04379 0.122413
v -0.025978 -0.039439 0.152411
v -0.025991 -0.039439 0.122417
v -0.032961 -0.033678 0.152414
v -0.032974 -0.033678 0.12242
v -0.038723 -0.026695 0.152417
v -0.038736 -0.026695 0.122422
v -0.043074 -0.01868 0.152418
v -0.043087 -0.01868 0.122424
v -0.045824 -0.009825 0.15242
v -0.045837 -0.009825 0.122425
v -0.046783 -0.000319 0.15242
v -0.046796 -0.000319 0.122425
v -0.045824 0.009187 0.15242
v -0.045837 0.009187 0.122425
v -0.043074 0.018043 0.152418
v -0.043087 0.018043 0.122424
v -0.038723 0.026057 0.152417
v -0.038736 0.026057 0.122422
v -0.032961 0.03304 0.152414
v -0.032974 0.03304 0.12242
v -0.025978 0.038802 0.152411
v -0.025991 0.038802 0.122417
v -0.017964 0.043153 0.152408
v -0.017977 0.043153 0.122413
v -0.009108 0.045903 0.152404
v -0.009121 0.045903 0.12241
v 0.000397 0.046862 0.1524
v 0.000385 0.046862 0.122406
v 0.009903 0.045903 0.152396
v 0.009891 0.045903 0.122402
v 0.018759 0.043153 0.152393
v 0.018746 0.043153 0.122398
v 0.026773 0.038802 0.152389
v 0.026761 0.038802 0.122395
v 0.033756 0.03304 0.152386
v 0.033744 0.03304 0.122392
v 0.039518 0.026057 0.152384
v 0.039505 0.026057 0.122389
v 0.043869 0.018043 0.152382
v 0.043857 0.018043 0.122388
v 0.046619 0.009187 0.152381
v 0.046607 0.009187 0.122386
v 0.047578 -0.000319 0.15238
v 0.047565 -0.000319 0.122386
v 0.046619 -0.009825 0.152381
v 0.046607 -0.009825 0.122386
v 0.043869 -0.01868 0.152382
v 0.043857 -0.01868 0.122387
v 0.039518 -0.026695 0.152384
v 0.039505 -0.026695 0.122389
v 0.033756 -0.033678 0.152386
v 0.033744 -0.033678 0.122392
v 0.026773 -0.039439 0.152389
v 0.026761 -0.039439 0.122395
v 0.018759 -0.04379 0.152393
v 0.018746 -0.04379 0.122398
v 0.009903 -0.04654 0.152396
v 0.009891 -0.04654 0.122402
v 0.000398 -0.047185 0.15315
v -0.009045 -0.046233 0.153154
v -0.009108 -0.04654 0.152404
v 0.000397 -0.047499 0.1524
v -0.017842 -0.043501 0.153158
v -0.017964 -0.04379 0.152408
v -0.025802 -0.039179 0.153161
v -0.025978 -0.039439 0.152411
v -0.032739 -0.033456 0.153164
v -0.032961 -0.033678 0.152414
v -0.038463 -0.026519 0.153166
v -0.038723 -0.026695 0.152417
v -0.042785 -0.018558 0.153168
v -0.043074 -0.01868 0.152418
v -0.045516 -0.009762 0.153169
v -0.045824 -0.009825 0.15242
v -0.046469 -0.000319 0.15317
v -0.046783 -0.000319 0.15242
v -0.045516 0.009124 0.153169
v -0.045824 0.009187 0.15242
v -0.042785 0.017921 0.153168
v -0.043074 0.018043 0.152418
v -0.038463 0.025881 0.153166
v -0.038723 0.026057 0.152417
v -0.032739 0.032818 0.153164
v -0.032961 0.03304 0.152414
v -0.025802 0.038542 0.153161
v -0.025978 0.038802 0.152411
v -0.017842 0.042864 0.153158
v -0.017964 0.043153 0.152408
v -0.009045 0.045595 0.153154
v -0.009108 0.045903 0.152404
v 0.000398 0.046548 0.15315
v 0.000397 0.046862 0.1524
v 0.009841 0.045595 0.153146
v 0.009903 0.045903 0.152396
v 0.018637 0.042864 0.153142
v 0.018759 0.043153 0.152393
v 0.026598 0.038542 0.153139
v 0.026773 0.038802 0.152389
v 0.033535 0.032818 0.153136
v 0.033756 0.03304 0.152386
v 0.039258 0.025881 0.153134
v 0.039518 0.026057 0.152384
v 0.04358 0.017921 0.153132
v 0.043869 0.018043 0.152382
v 0.046312 0.009124 0.153131
v 0.046619 0.009187 0.152381
v 0.047264 -0.000319 0.15313
v 0.047578 -0.000319 0.15238
v 0.046312 -0.009762 0.153131
v 0.046619 -0.009825 0.152381
v 0.04358 -0.018558 0.153132
v 0.043869 -0.01868 0.152382
v 0.039258 -0.026519 0.153134
v 0.039518 -0.026695 0.152384
v 0.033535 -0.033456 0.153136
v 0.033756 -0.033678 0.152386
v 0.026598 -0.039179 0.153139
v 0.026773 -0.039439 0.152389
v 0.018637 -0.043501 0.153142
v 0.018759 -0.04379 0.152393
v 0.009841 -0.046233 0.153146
v 0.009903 -0.04654 0.152396
vn 0.0003 0 0.7499
vn 0 -0.3124 0
vn -0.0623 -0.3062 0
vn -0.1215 -0.2879 0.0001
vn -0.1748 -0.259 0.0001
vn -0.2209 -0.2209 0.0001
vn -0.259 -0.1748 0.0001
vn -0.2879 -0.1215 0.0001
vn -0.3062 -0.0623 0.0001
vn -0.3124 0 0.0001
vn -0.3062 0.0623 0.0001
vn -0.2879 0.1215 0.0001
vn -0.259 0.1748 0.0001
vn -0.2209 0.2209 0.0001
vn -0.1748 0.259 0.0001
vn -0.1215 0.2879 0.0001
vn -0.0623 0.3062 0
vn 0 0.3124 0
vn 0.0623 0.3062 0
vn 0.1215 0.2879 -0.0001
vn 0.1748 0.259 -0.0001
vn 0.2209 0.2209 -0.0001
vn 0.259 0.1748 -0.0001
vn 0.2879 0.1215 -0.0001
vn 0.3062 0.0623 -0.0001
vn 0.3124 0 -0.0001
vn 0.3062 -0.0623 -0.0001
vn 0.2879 -0.1215 -0.0001
vn 0.259 -0.1748 -0.0001
vn 0.2209 -0.2209 -0.0001
vn 0.1748 -0.259 -0.0001
vn 0.1215 -0.2879 -0.0001
vn 0.0623 -0.3062 0
vn 0.0002 -0.2204 0.5316
vn -0.0437 -0.2159 0.5316
vn -0.0854 -0.2031 0.5315
vn -0.1231 -0.1827 0.5315
vn -0.1556 -0.1559 0.5315
vn -0.1825 -0.1233 0.5315
vn -0.2028 -0.0857 0.5316
vn -0.2157 -0.044 0.5317
vn -0.2201 0 0.5317
vn -0.2157 0.044 0.5317
vn -0.2028 0.0857 0.5316
vn -0.1825 0.1233 0.5315
vn -0.1556 0.1559 0.5315
vn -0.1231 0.1827 0.5315
vn -0.0854 0.2031 0.5315
vn -0.0437 0.2159 0.5316
vn 0.0002 0.2204 0.5316
vn 0.0442 0.2159 0.5315
vn 0.0859 0.2031 0.5315
vn 0.1235 0.1827 0.5314
vn 0.1561 0.1559 0.5314
vn 0.1829 0.1233 0.5314
vn 0.2033 0.0857 0.5314
vn 0.2162 0.044 0.5315
vn 0.2206 0 0.5315
vn 0.2162 -0.044 0.5315
vn 0.2033 -0.0857 0.5314
vn 0.1829 -0.1233 0.5314
vn 0.1561 -0.1559 0.5314
vn 0.1235 -0.1827 0.5314
vn 0.0859 -0.2031 0.5315
vn 0.0442 -0.2159 0.5315
usemtl Material
f 1//1 2//1 3//1
f 4//1 2//1 1//1
f 4//1 5//1 2//1
f 6//1 5//1 4//1
f 6//1 7//1 5//1
f 8//1 7//1 6//1
f 8//1 9//1 7//1
f 10//1 9//1 8//1
f 10//1 11//1 9//1
f 12//1 11//1 10//1
f 12//1 13//1 11//1
f 14//1 13//1 12//1
f 14//1 15//1 13//1
f 16//1 15//1 14//1
f 16//1 17//1 15//1
f 18//1 17//1 16//1
f 18//1 19//1 17//1
f 20//1 19//1 18//1
f 20//1 21//1 19//1
f 22//1 21//1 20//1
f 22//1 23//1 21//1
f 24//1 23//1 22//1
f 24//1 25//1 23//1
f 26//1 25//1 24//1
f 26//1 27//1 25//1
f 28//1 27//1 26//1
f 28//1 29//1 27//1
f 30//1 29//1 28//1
f 30//1 31//1 29//1
f 32//1 31//1 30//1
f 33//2 34//3 35//3
f 33//2 35//3 36//2
f 34//3 37//4 38//4
f 34//3 38//4 35//3
f 37//4 39//5 40//5
f 37//4 40//5 38//4
f 39//5 41//6 42//6
f 39//5 42//6 40//5
f 41//6 43//7 44//7
f 41//6 44//7 42//6
f 43//7 45//8 46//8
f 43//7 46//8 44//7
f 45//8 47//9 48//9
f 45//8 48//9 46//8
f 47//9 49//10 50//10
f 47//9 50//10 48//9
f 49//10 51//11 52//11
f 49//10 52//11 50//10
f 51//11 53//12 54//12
f 51//11 54//12 52//11
f 53//12 55//13 56//13
f 53//12 56//13 54//12
f 55//13 57//14 58//14
f 55//13 58//14 56//13
f 57//14 59//15 60//15
f 57//14 60//15 58//14
f 59//15 61//16 62//16
f 59//15 62//16 60//15
f 61//16 63//17 64//17
f 61//16 64//17 62//16
f 63//17 65//18 66//18
f 63//17 66//18 64//17
f 65//18 67//19 68//19
f 65//18 68//19 66//18
f 67//19 69//20 70//20
f 67//19 70//20 68//19
f 69//20 71//21 72//21
f 69//20 72//21 70//20
f 71//21 73//22 74//22
f 71//21 74//22 72//21
f 73//22 75//23 76//23
f 73//22 76//23 74//22
f 75//23 77//24 78//24
f 75//23 78//24 76//23
f 77//24 79//25 80//25
f 77//24 80//25 78//24
f 79//25 81//26 82//26
f 79//25 82//26 80//25
f 81//26 83//27 84//27
f 81//26 84//27 82//26
f 83//27 85//28 86//28
f 83//27 86//28 84//27
f 85//28 87//29 88//29
f 85//28 88//29 86//28
f 87//29 89//30 90//30
f 87//29 90//30 88//29
f 89//30 91//31 92//31
f 89//30 92//31 90//30
f 91//31 93//32 94//32
f 91//31 94//32 92//31
f 93//32 95//33 96//33
f 93//32 96//33 94//32
f 95//33 33//2 36//2
f 95//33 36//2 96//33
f 97//34 98//35 99//35
f 97//34 99//35 100//34
f 98//35 101//36 102//36
f 98//35 102//36 99//35
f 101//36 103//37 104//37
f 101//36 104//37 102//36
f 103//37 105//38 106//38
f 103//37 106//38 104//37
f 105//38 107//39 108//39
f 105//38 108//39 106//38
f 107//39 109//40 110//40
f 107//39 110//40 108//39
f 109//40 111//41 112//41
f 109//40 112//41 110//40
f 111//41 113//42 114//42
f 111//41 114//42 112//41
f 113//42 115//43 116//43
f 113//42 116//43 114//42
f 115//43 117//44 118//44
f 115//43 118//44 116//43
f 117//44 119//45 120//45
f 117//44 120//45 118//44
f 119//45 121//46 122//46
f 119//45 122//46 120//45
f 121//46 123//47 124//47
f 121//46 124//47 122//46
f 123//47 125//48 126//48
f 123//47 126//48 124//47
f 125//48 127//49 128//49
f 125//48 128//49 126//48
f 127//49 129//50 130//50
f 127//49 130//50 128//49
f 129//50 131//51 132//51
f 129//50 132//51 130//50
f 131//51 133//52 134//52
f 131//51 134//52 132//51
f 133//52 135//53 136//53
f 133//52 136//53 134//52
f 135//53 137//54 138//54
f 135//53 138//54 136//53
f 137//54 139//55 140//55
f 137//54 140//55 138//54
f 139//55 141//56 142//56
f 139//55 142//56 140//55
f 141//56 143//57 144//57
f 141//56 144//57 142//56
f 143//57 145//58 146//58
f 143//57 146//58 144//57
f 145//58 147//59 148//59
f 145//58 148//59 146//58
f 147//59 149//60 150//60
f 147//59 150//60 148//59
f 149//60 151//61 152//61
f 149//60 152//61 150//60
f 151//61 153//62 154//62
f 151//61 154//62 152//61
f 153//62 155//63 156//63
f 153//62 156//63 154//62
f 155//63 157//64 158//64
f 155//63 158//64 156//63
f 157//64 159//65 160//65
f 157//64 160//65 158//64
f 159//65 97//34 100//34
f 159//65 100//34 160//65
